<svg width="72" height="72" viewBox="0 0 72 72" fill="none" xmlns="http://www.w3.org/2000/svg">
<path d="M41.657 35.9995L66.828 10.8275C68.39 9.2655 68.39 6.7325 66.828 5.1715C65.266 3.6095 62.734 3.6095 61.172 5.1715L36 30.3425L10.829 5.1715C9.26699 3.6095 6.73399 3.6095 5.17199 5.1715C3.60999 6.7335 3.60999 9.2665 5.17199 10.8275L30.344 35.9995L5.17199 61.1715C3.60999 62.7335 3.60999 65.2665 5.17199 66.8275C5.95299 67.6085 6.97699 67.9995 7.99999 67.9995C9.02299 67.9995 10.048 67.6085 10.829 66.8275L36 41.6565L61.172 66.8275C61.953 67.6085 62.977 67.9995 64 67.9995C65.023 67.9995 66.048 67.6085 66.828 66.8275C68.39 65.2655 68.39 62.7325 66.828 61.1715L41.657 35.9995Z" fill="black"/>
</svg>
