<!-- icon666.com - MILLIONS OF FREE VECTOR ICONS --><svg id="Capa_1" enable-background="new 0 0 512 512" viewBox="0 0 512 512" xmlns="http://www.w3.org/2000/svg"><g><g id="Page-1_24_"><g id="_x30_25---Dial"><path id="Shape_181_" d="m256 0c-141.385 0-256 114.615-256 256s114.615 256 256 256 256-114.615 256-256c-.16-141.319-114.681-255.84-256-256zm0 494.933c-131.959 0-238.933-106.974-238.933-238.933s106.974-238.933 238.933-238.933 238.933 106.974 238.933 238.933c-.15 131.897-107.036 238.783-238.933 238.933z"></path><path id="Shape_180_" d="m256 34.133c-103.212.02-192.779 71.21-216.091 171.755s25.789 203.886 118.461 249.323c4.242 2.078 9.365.325 11.443-3.917s.325-9.365-3.917-11.443c-1.621-.794-3.149-1.707-4.745-2.56l12.638-21.888c1.549-2.642 1.563-5.911.038-8.566s-4.356-4.29-7.418-4.283-5.886 1.654-7.399 4.316l-12.638 21.888c-25.538-16.075-47.197-37.608-63.42-63.053l22.118-12.8c2.662-1.513 4.309-4.337 4.316-7.399s-1.628-5.893-4.283-7.418-5.924-1.511-8.566.038l-22.127 12.8c-13.924-26.751-21.749-56.256-22.912-86.391h25.302c4.713 0 8.533-3.821 8.533-8.533 0-4.713-3.82-8.533-8.533-8.533h-25.387c1.222-30.146 9.139-59.642 23.177-86.349l21.948 12.672c2.642 1.549 5.911 1.563 8.566.038s4.29-4.356 4.283-7.418-1.654-5.886-4.316-7.399l-21.914-12.655c16.196-25.43 37.768-47.001 63.198-63.198l12.655 21.914c1.513 2.662 4.337 4.309 7.399 4.316s5.893-1.628 7.418-4.283 1.511-5.924-.038-8.566l-12.671-21.951c26.707-14.036 56.203-21.953 86.349-23.177v25.387c0 4.713 3.821 8.533 8.533 8.533 4.713 0 8.533-3.82 8.533-8.533v-25.387c30.146 1.224 59.642 9.14 86.349 23.177l-12.672 21.948c-1.549 2.642-1.563 5.911-.038 8.566s4.356 4.29 7.418 4.283 5.886-1.654 7.399-4.316l12.655-21.914c25.43 16.196 47.001 37.768 63.198 63.198l-21.914 12.655c-2.662 1.513-4.309 4.337-4.316 7.399s1.628 5.893 4.283 7.418 5.924 1.511 8.566-.038l21.948-12.672c14.036 26.707 21.953 56.203 23.177 86.349h-25.386c-4.713 0-8.533 3.821-8.533 8.533 0 4.713 3.82 8.533 8.533 8.533h25.301c-1.154 30.156-8.979 59.682-22.912 86.451l-22.127-12.8c-2.642-1.549-5.911-1.563-8.566-.038s-4.29 4.356-4.283 7.418 1.654 5.886 4.316 7.399l22.118 12.8c-16.223 25.444-37.882 46.978-63.42 63.053l-12.638-21.888c-1.514-2.662-4.337-4.309-7.399-4.316s-5.893 1.628-7.418 4.283-1.511 5.924.038 8.566l12.638 21.888c-1.596.853-3.123 1.707-4.745 2.56-4.242 2.078-5.995 7.202-3.917 11.443 2.078 4.242 7.202 5.995 11.443 3.917 92.743-45.402 141.904-148.783 118.584-249.376-23.319-100.59-112.953-171.796-216.213-171.759z"></path><path id="Shape_179_" d="m383.932 340.949c2.646-3.984 3.535-8.882 2.458-13.542-1.047-4.575-3.959-8.503-8.03-10.837l-14.839-8.61c-7.706-4.504-17.584-2.265-22.596 5.12-18.967 28.33-50.814 45.334-84.907 45.334s-65.94-17.004-84.907-45.334c-5.015-7.382-14.889-9.619-22.596-5.12l-14.874 8.627c-4.071 2.334-6.982 6.263-8.03 10.837-1.077 4.66-.188 9.558 2.458 13.542 28.444 42.878 76.477 68.654 127.931 68.654s99.487-25.776 127.932-68.654zm-127.932 51.584c-45.81.036-88.57-22.957-113.801-61.193l14.711-8.789c22.102 33.053 59.228 52.912 98.99 52.948s76.924-19.755 99.086-52.768l14.857 8.61-.085.171c-25.262 38.157-67.996 61.08-113.758 61.021z"></path><path id="Shape_178_" d="m256 230.4c-7.076.012-13.828 2.967-18.637 8.158l-87.441-38.17c-2.797-1.239-6.044-.885-8.509.927s-3.771 4.805-3.424 7.845c.348 3.04 2.296 5.661 5.106 6.87l87.484 38.187c-.043.597-.179 1.169-.179 1.783-.026 10.509 6.39 19.962 16.166 23.816s20.917 1.325 28.07-6.374l17.067 7.45c4.322 1.885 9.353-.09 11.238-4.412s-.09-9.353-4.412-11.238l-17.067-7.458c.043-.597.179-1.169.179-1.783 0-6.797-2.703-13.315-7.513-18.117-4.809-4.803-11.331-7.495-18.128-7.484zm0 34.133c-4.713 0-8.533-3.821-8.533-8.533 0-4.713 3.821-8.533 8.533-8.533 4.713 0 8.533 3.821 8.533 8.533 0 4.713-3.82 8.533-8.533 8.533z"></path></g></g></g></svg>